Coordinates
version=1
nRows=12
nColumns=24
inDegrees=yes

Units are S.I. units (second, meters, Newtons, ...)
Angles are in degrees.

endheader
time	pelvis_tilt	pelvis_list	pelvis_rotation	pelvis_tx	pelvis_ty	pelvis_tz	hip_flexion_r	hip_adduction_r	hip_rotation_r	knee_angle_r	ankle_angle_r	subtalar_angle_r	mtp_angle_r	hip_flexion_l	hip_adduction_l	hip_rotation_l	knee_angle_l	ankle_angle_l	subtalar_angle_l	mtp_angle_l	lumbar_extension	lumbar_bending	lumbar_rotation
      3.82000000	      0.78241336	     -2.75422637	     -8.80280738	     -3.05029982	      0.71699482	      0.24256290	    -20.60705544	      6.29251656	      9.24265013	     -8.99031412	     19.68229477	     -8.83172550	      0.00000000	     22.99491331	     -4.32461356	     -7.28471980	     -3.37221245	      4.17922830	    -15.35370375	      0.00000000	    -22.33691011	     -2.42175073	      7.69383555
      3.83000000	      0.67706681	     -2.33835847	     -9.03051731	     -3.03651493	      0.71495273	      0.24201947	    -21.46434448	      5.47291188	      9.38765171	     -9.15389924	     19.29513844	     -8.51770764	      0.00000000	     23.24937501	     -3.70994614	     -6.10930207	     -3.98545697	      2.74868920	    -17.14687156	      0.00000000	    -22.11198644	     -2.93846072	      7.81020189
      3.84000000	      0.61232083	     -1.70784942	     -9.25652566	     -3.02250736	      0.71321544	      0.24137072	    -22.27137297	      4.42981322	      9.48607565	     -9.41367194	     18.83972340	     -8.16964725	      0.00000000	     23.50377015	     -2.86749330	     -4.95542489	     -5.11831306	      0.92778699	    -19.55570780	      0.00000000	    -21.90290953	     -3.69130510	      7.84507122
      3.85000000	      0.52799815	     -0.92850468	     -9.37577262	     -3.00831598	      0.71171067	      0.24050411	    -22.91428299	      3.28239329	      9.30604920	     -9.86019513	     18.05504991	     -7.94258200	      0.00000000	     23.96460803	     -1.83251353	     -3.82199305	     -6.94838135	     -0.89203033	    -22.23531459	      0.00000000	    -21.66441868	     -4.55966351	      7.75994142
      3.86000000	      0.51266740	     -0.00754922	     -9.44870100	     -2.99392474	      0.71054431	      0.23954666	    -23.49861927	      2.02237243	      9.08710597	    -10.49619391	     17.05349427	     -7.80594003	      0.00000000	     24.59613517	     -0.65044025	     -3.24098684	     -9.50452009	     -2.17630595	    -24.32798009	      0.00000000	    -21.49018707	     -5.57929930	      7.57822762
      3.87000000	      0.51467275	      0.92855221	     -9.47338092	     -2.97936855	      0.70963043	      0.23856958	    -23.90356294	      0.79938962	      8.77580256	    -11.46541503	     15.72809408	     -7.70465703	      0.00000000	     25.48587311	      0.49563338	     -3.39911895	    -12.77563782	     -2.30219863	    -25.13479492	      0.00000000	    -21.33194273	     -6.60770234	      7.34237731
      3.88000000	      0.55852984	      1.82492121	     -9.49611967	     -2.96462233	      0.70897070	      0.23760967	    -24.12720669	     -0.35484279	      8.42904526	    -12.81035317	     14.08608508	     -7.68188303	      0.00000000	     26.32649845	      1.60123975	     -3.55431266	    -16.21097715	     -2.09160028	    -25.98726449	      0.00000000	    -21.20101703	     -7.59164715	      7.18349251
      3.89000000	      0.55372853	      2.57086166	     -9.52272086	     -2.94978310	      0.70851693	      0.23677650	    -24.08604239	     -1.26516665	      8.52968591	    -14.52110983	     11.75112276	     -8.36868593	      0.00000000	     27.14719595	      2.49169375	     -3.98131429	    -19.62630131	     -1.12811479	    -26.19242541	      0.00000000	    -21.00803879	     -8.40642842	      7.09219207
      3.90000000	      0.59038652	      3.21507369	     -9.63552857	     -2.93490862	      0.70844308	      0.23609371	    -23.68536914	     -2.08513514	      8.47518184	    -16.82456538	      9.15383230	     -8.67487503	      0.00000000	     27.65146841	      3.23348565	     -4.55512598	    -22.60973361	      0.26594402	    -26.06539664	      0.00000000	    -20.84273563	     -9.12609587	      7.09917252
      3.91000000	      0.63033252	      3.77575586	     -9.86831566	     -2.92009046	      0.70876893	      0.23558978	    -22.89056882	     -2.82861730	      8.51144378	    -19.64920065	      6.29950498	     -8.80105252	      0.00000000	     27.78184806	      3.85175936	     -5.20344936	    -24.95591483	      1.88795598	    -25.87166665	      0.00000000	    -20.65785913	     -9.77277919	      7.21545073
      3.92000000	      0.70849378	      4.25893245	    -10.19021524	     -2.90543461	      0.70957072	      0.23520775	    -21.72654457	     -3.51205745	      8.53372651	    -22.94926734	      3.37704869	     -8.58644044	      0.00000000	     27.48332382	      4.37457857	     -5.94992274	    -26.61375384	      3.60471414	    -25.52722841	      0.00000000	    -20.51818000	    -10.33614567	      7.34252696
      3.93000000	      0.77428743	      4.67885742	    -10.59174074	     -2.89103739	      0.71078445	      0.23490069	    -20.12788018	     -4.15490584	      8.51608731	    -26.69232041	      0.76136622	     -7.83142155	      0.00000000	     26.82164013	      4.83081439	     -6.74436559	    -27.58882904	      5.26725961	    -25.14378119	      0.00000000	    -20.37543045	    -10.80859139	      7.45420536
